<?xml version="1.0" encoding="utf-8"?>
<!-- Generator: Adobe Illustrator 23.0.0, SVG Export Plug-In . SVG Version: 6.00 Build 0)  -->
<svg version="1.1" id="Livello_1" xmlns="http://www.w3.org/2000/svg" xmlns:xlink="http://www.w3.org/1999/xlink" x="0px" y="0px"
	 viewBox="0 0 366.44 189.26" style="enable-background:new 0 0 366.44 189.26;" xml:space="preserve">
<style type="text/css">
	.st0{fill:#8D8D8E;}
</style>
<path class="st0" d="M92.52,60.72c-18.64-4.34-23.23,16.6-23.23,16.6s-8.43-3.57-10.47,4.34s10.98,9.45,10.98,9.45
	s-2.81,5.62,9.45,8.17s19.15-1.79,19.15-1.79s8.17,10.21,22.72,9.45c14.55-0.77,17.87-10.98,17.87-10.98s17.36,2.04,22.21-5.36
	c4.85-7.4,0-16.85,0-16.85s2.3-9.96-10.72-16.6s-25.79,2.81-25.79,2.81s-4.19-8.43-13.71-8.43S92.52,60.72,92.52,60.72z"/>
<path class="st0" d="M273.65,70.31c-9-2.1-11.22,8.01-11.22,8.01s-4.07-1.73-5.05,2.1s5.3,4.56,5.3,4.56s-1.36,2.71,4.56,3.94
	s9.24-0.86,9.24-0.86s3.94,4.93,10.97,4.56c7.03-0.37,8.63-5.3,8.63-5.3s8.38,0.99,10.72-2.59c2.34-3.57,0-8.14,0-8.14
	s1.11-4.81-5.18-8.01c-6.29-3.2-12.45,1.36-12.45,1.36s-2.02-4.07-6.62-4.07S273.65,70.31,273.65,70.31z"/>
</svg>
