<?xml version="1.0" encoding="utf-8"?>
<!-- Generator: Adobe Illustrator 22.1.0, SVG Export Plug-In . SVG Version: 6.00 Build 0)  -->
<svg version="1.1" id="Layer_1" xmlns="http://www.w3.org/2000/svg" xmlns:xlink="http://www.w3.org/1999/xlink" x="0px" y="0px"
	 viewBox="0 0 750 500" style="enable-background:new 0 0 750 500;" xml:space="preserve">
<style type="text/css">
	.st0{fill:url(#SVGID_1_);}
	.st1{fill:#FABE4E;}
	.st2{fill:#431C31;}
	.st3{fill:#CE1E1E;}
	.st4{fill:#CC2121;}
	.st5{fill:#1D0A1E;}
	.st6{fill:#F5A100;}
</style>
<linearGradient id="SVGID_1_" gradientUnits="userSpaceOnUse" x1="375" y1="-0.1102" x2="375" y2="499.8898" gradientTransform="matrix(1 0 0 -1 0 499.8898)">
	<stop  offset="0" style="stop-color:#F1AB3C"/>
	<stop  offset="1" style="stop-color:#E54717"/>
</linearGradient>
<rect y="0" class="st0" width="750" height="500"/>
<circle class="st1" cx="375.5" cy="350.5" r="87.5"/>
<rect y="351" class="st2" width="750" height="150"/>
<rect y="351" class="st2" width="750" height="3.5"/>
<polygon class="st3" points="0,351 0,226 45,181 143,279 179.5,242.5 326,351 "/>
<polygon class="st3" points="750,351 750,226 705,181 607,279 570.5,242.5 424,351 "/>
<polygon class="st4" points="0,226 45,181 143,279 179.5,242.5 326,351 179.8,254.1 143,289.9 45,192.9 "/>
<polygon class="st4" points="705,192.9 607,289.9 570.2,254.1 424,351 570.5,242.5 607,279 705,181 750,226 "/>
<polygon class="st5" points="79.9,351 109.9,245.9 139.1,351 161,306 182.3,351 207,220 239.8,351 "/>
<polygon class="st5" points="79.9,351 109.9,245.9 139.1,351 161,306 182.3,351 207,220 239.8,351 204.2,234.9 182.3,351 157.1,314 
	139.1,351 105.9,260.1 79.9,351 "/>
<polygon class="st5" points="669.8,351 643.8,260.1 610.6,351 592.6,314 567.4,351 545.5,234.9 509.9,351 542.7,220 567.4,351 
	588.7,306 610.6,351 639.8,245.9 669.8,351 "/>
<polygon class="st5" points="509.9,351 542.7,220 567.4,351 588.7,306 610.6,351 639.8,245.9 669.8,351 "/>
<path class="st1" d="M212.5,117H75.3c-6.6,0-12,5.4-12,12l0,0c0,2.3,0.6,4.4,1.8,6.2h-9.2c-5.5,0-9.9,4.5-9.9,9.9l0,0
	c0,5.5,4.5,9.9,9.9,9.9h141.3c5.5,0,9.9-4.5,9.9-9.9l0,0c0-1.5-0.3-2.9-0.9-4.1h6.3c6.6,0,12-5.4,12-12l0,0
	C224.4,122.4,219,117,212.5,117z"/>
<g>
	<path class="st1" d="M200.2,141c0.6,1.2,0.9,2.6,0.9,4.1c0,5.4-4.4,9.9-9.9,9.9h6c5.5,0,9.9-4.5,9.9-9.9c0-1.5-0.3-2.9-0.9-4.1
		H200.2z"/>
	<path class="st1" d="M212.5,117h-6c6.5,0,11.9,5.4,12,12c0,6.6-5.4,12-12,12h6c6.6,0,12-5.4,12-12C224.4,122.4,219,117,212.5,117z"
		/>
</g>
<path class="st1" d="M689,108h-33v-7c0-6.6-5.4-12-12-12h-9c0-6.6-5.4-12-12-12H436c-6.6,0-12,5.4-12,12s5.4,12,12,12h19v7
	c0,6.6,5.4,12,12,12h23c0,6.6,5.4,12,12,12h187c6.6,0,12-5.4,12-12S695.6,108,689,108z"/>
<g>
	<path class="st1" d="M434,89c0-6.6,5.4-12,12-12h-10c-6.6,0-12,5.4-12,12s5.4,12,12,12h10C439.4,101,434,95.6,434,89z"/>
	<path class="st1" d="M465,108v-7h-10v7c0,6.6,5.4,12,12,12h10C470.4,120,465,114.6,465,108z"/>
	<path class="st1" d="M500,120h-10c0,6.6,5.4,12,12,12h10C505.4,132,500,126.6,500,120z"/>
</g>
<path class="st6" d="M521.5,370h-292c-1.9,0-3.5-1.6-3.5-3.5l0,0c0-1.9,1.6-3.5,3.5-3.5h292c1.9,0,3.5,1.6,3.5,3.5l0,0
	C525,368.4,523.4,370,521.5,370z"/>
<path class="st1" d="M480.5,383h-210c-1.9,0-3.5-1.6-3.5-3.5l0,0c0-1.9,1.6-3.5,3.5-3.5h210c1.9,0,3.5,1.6,3.5,3.5l0,0
	C484,381.4,482.4,383,480.5,383z"/>
</svg>
